<svg width="141" height="81" viewBox="0 0 141 81" fill="none" xmlns="http://www.w3.org/2000/svg">
<g clip-path="url(#clip0)">
<path d="M40.8024 20.3983C39.5524 20.0732 38.2361 19.9328 36.2471 19.8818C32.9263 19.7985 31.1058 19.4594 27.5198 18.2049C24.582 17.1951 24.1605 17.1144 23.3493 17.4044C22.461 17.7203 21.1181 19.0813 20.2432 20.5587C19.5681 21.712 16.9875 25.2044 16.7409 25.3124C16.1553 25.5609 15.7864 25.9679 15.1421 27.0849C14.7787 27.713 14.1703 28.6295 13.7809 29.1034C12.6081 30.5615 11.8969 31.7606 10.8239 34.0514C9.96051 35.8943 9.7301 36.3057 9.14648 37.0683C8.30641 38.1397 7.59136 39.6838 7.29717 41.0778C7.09473 42.0806 7.10544 42.2654 7.41978 42.6915C7.72418 43.1119 9.7173 44.628 11.2777 45.6204C14.815 47.877 15.7314 48.3575 31.0906 55.9831L46.0687 63.4195L47.6686 63.9184C53.0546 65.6044 57.6249 65.8076 60.3243 64.5045C61.0017 64.1736 61.0788 64.0966 61.519 63.3653C62.0918 62.3923 62.3108 61.5384 62.1444 60.8911C62.0664 60.6085 62.086 60.2331 62.1723 59.9296C62.5848 58.6077 62.2926 57.0767 61.4107 55.9844C60.709 55.1229 59.7719 54.5035 58.2436 53.8861C56.1338 53.0436 53.4821 51.3037 51.3743 49.3723C50.4674 48.5369 50.5655 48.6753 47.9373 44.4324L45.9496 41.2255L45.2907 40.8984L44.6421 40.5764L43.3305 38.3851L42.0189 36.1939L41.9385 34.9864C41.8581 33.8813 41.8786 33.7375 42.17 33.1506C42.5636 32.3579 42.8018 31.2831 42.7235 30.6407C42.6812 30.2861 42.7574 29.926 43.0279 29.2518C44.0575 26.6085 44.1055 23.437 43.1342 21.749C42.8503 21.2617 42.7161 21.1435 42.1757 20.8879C41.8259 20.7142 41.2135 20.5 40.8024 20.3983ZM41.8028 23.3971C42.2341 24.9583 41.9775 27 41.0836 29.0581C40.568 30.2518 40.5627 30.288 40.7338 30.7448C40.8528 31.0731 40.8588 31.3715 40.7572 31.7056L40.6043 32.1944L38.427 32.9355C37.2306 33.355 36.2242 33.7536 36.1834 33.8359C36.0454 34.1137 36.2061 34.5914 36.4738 34.7243C36.6796 34.8265 37.1419 34.7224 38.3689 34.3181L40.0072 33.7843L40.083 35.0793L40.1741 36.3692L39.4911 36.6075L38.808 36.8458L37.1661 35.9663C35.0296 34.8158 35.0868 35.011 36.2111 32.7464L37.034 31.089L38.4271 31.0746L39.81 31.0552L40.2292 30.2879C40.5818 29.629 40.6278 29.485 40.5243 29.228C40.4208 28.9709 40.3436 28.9199 39.8139 28.7982C39.3198 28.6816 39.2123 28.6148 39.1498 28.4303C39.0253 28.0604 39.2977 27.9518 40.0282 28.0833C41.0156 28.2654 41.0563 28.2347 41.388 27.4114C42.0209 25.8264 41.7857 24.4651 40.7658 23.6251C39.5491 22.6379 33.8369 21.9447 24.3527 21.6371C22.9648 21.5898 21.8339 21.5414 21.8338 21.5159C21.8287 21.5007 22.0593 21.1657 22.3459 20.7693C23.0117 19.868 23.8114 19.1102 24.1143 19.0938C24.2431 19.0934 25.4567 19.4648 26.805 19.9293C30.8074 21.2747 32.7413 21.6701 35.6298 21.7189C37.6807 21.749 38.4979 21.8085 39.5369 22.0162C41.3886 22.3708 41.5429 22.4729 41.8028 23.3971ZM40.2547 24.8611C40.4922 25.1841 40.5559 25.8829 40.3977 26.4849C40.3216 26.8189 40.2857 26.84 39.7715 26.7896C39.0978 26.7244 38.6155 26.8957 38.2567 27.3338C37.6981 28.019 37.8194 29.0673 38.515 29.5795C38.8653 29.8305 38.6957 29.836 34.0284 29.8285C29.2016 29.8062 29.1761 29.8062 28.062 30.1896C27.2305 30.4694 26.7324 30.7225 26.1631 31.1714L25.3835 31.7851L24.6424 31.4172C23.6955 30.947 22.552 30.1227 21.2482 28.975C19.996 27.8784 18.486 26.3201 18.5471 26.1971C18.7363 25.8161 21.0254 22.8596 21.164 22.8125C21.642 22.6781 31.2187 23.1596 34.453 23.4953C36.8748 23.7351 37.7851 23.8661 38.7206 24.1002C39.6876 24.3491 39.9864 24.4975 40.2547 24.8611ZM35.1655 32.0095L34.7106 32.9258L32.7623 32.9211C30.0331 32.9132 26.7009 32.5169 26.8442 32.2283C26.9565 32.002 28.05 31.4282 28.7278 31.2516C29.1645 31.1222 30.5162 31.0617 32.4691 31.056C34.1547 31.0461 35.5476 31.0578 35.5788 31.0732C35.5998 31.0836 35.4158 31.5054 35.1655 32.0095ZM34.5591 35.7123C34.8176 36.1227 34.9614 36.2202 36.6138 37.1042C38.3176 38.0144 38.4055 38.0708 38.8182 38.6348C39.0608 38.9475 39.4636 39.7122 39.7071 40.3335C40.2609 41.6735 41.3664 43.6593 42.1973 44.7517C42.7907 45.5467 42.7958 45.562 42.6274 46.082C42.541 46.3599 42.1066 47.2348 41.6819 48.012C40.8074 49.6183 39.9009 50.7465 38.7211 51.7263L38.0136 52.2987L37.1284 51.8593C34.637 50.6223 24.5209 44.8683 23.7329 44.2333C23.5578 44.0948 23.5154 43.7146 23.5424 42.3166C23.6181 38.1581 23.6014 37.7519 23.3993 37.0486C23.2849 36.6582 23.2073 36.3504 23.2277 36.3606C23.2482 36.3707 24.3569 37.5241 25.6918 38.9183C29.2593 42.6657 30.9544 44.1356 33.0545 45.3069C34.882 46.3294 36.0955 46.4704 37.0703 45.7995C37.3676 45.588 37.5266 45.3716 37.8226 44.6972C38.3332 43.5648 38.3258 42.7271 37.7975 41.3099C37.4454 40.3393 36.5103 38.7336 36.0621 38.3181C35.8716 38.1338 35.8665 38.144 35.7918 38.9663C35.6766 40.0767 35.1557 41.2041 34.6271 41.4675C34.4269 41.5604 34.0671 41.6644 33.8415 41.6804C33.2969 41.7181 32.1441 41.2483 31.4694 40.721C31.1911 40.5058 27.8313 37.4263 23.9925 33.8906L17.015 27.4494L17.2046 27.2227C17.3175 27.0992 17.4248 26.9856 17.44 26.9805C17.4553 26.9754 17.8114 27.3444 18.2393 27.8007C18.6672 28.257 19.5022 29.0821 20.0945 29.6201C23.6397 32.8687 26.2589 33.9252 31.2811 34.1478C32.011 34.1766 32.9518 34.1949 33.3835 34.1781L34.1645 34.1552L34.2227 34.71C34.2646 35.0141 34.4095 35.4712 34.5591 35.7123ZM41.4195 38.7721L42.0649 39.8495L41.5202 40.0412L40.9703 40.2177L40.7994 39.735C40.701 39.4677 40.4427 38.9288 40.2307 38.5543L39.8482 37.8513L40.2589 37.7216C40.4898 37.6439 40.6906 37.6023 40.7162 37.6277C40.738 37.6634 41.058 38.182 41.4195 38.7721ZM42.9223 41.3014C43.0151 41.4761 42.9589 41.6405 42.6831 42.1446L42.3355 42.7679L41.9429 42.0853L41.5503 41.4027L42.1205 41.2108C42.7569 40.9882 42.7671 40.9933 42.9223 41.3014ZM45.1177 43.3922L45.5825 44.1615L44.6737 44.4673L43.7547 44.768L43.4709 44.4087L43.1819 44.0341L43.6062 43.1797L44.0304 42.3252L44.3394 42.4786C44.5243 42.5717 44.8441 42.9355 45.1177 43.3922ZM18.7512 32.9195C20.3701 34.7495 21.8091 36.452 21.9431 36.6988C22.0775 36.945 22.233 37.4074 22.2801 37.7255C22.3846 38.3421 22.3211 43.2248 22.2133 43.2611C22.131 43.2973 18.7996 41.1683 15.5707 39.0394C12.4138 36.9462 11.8839 36.5672 11.8368 36.4286C11.7694 36.2283 13.3232 33.022 13.9575 32.0534C14.495 31.2297 15.7235 29.5554 15.7649 29.5759C15.7762 29.5815 17.1224 31.0839 18.7512 32.9195ZM47.0437 46.5168L47.3537 47.0043L46.6963 47.2166L46.0234 47.4345L45.6215 46.9784C45.3949 46.7372 45.07 46.3582 44.8996 46.1577L44.5798 45.7939L45.4011 45.5091L46.2327 45.2293L46.486 45.6243C46.6305 45.8501 46.8788 46.2554 47.0437 46.5168ZM48.5928 49.0055C48.8047 49.3546 49.1397 49.7902 49.3308 49.9748C49.6759 50.2875 49.6811 50.3283 49.492 50.7093C49.3847 50.9253 49.2563 51.08 49.2155 51.0597C49.1639 51.0341 48.7825 50.6136 48.3545 50.1318C47.9316 49.6398 47.4363 49.0858 47.2664 48.8856L46.9469 48.5213L47.4653 48.3298C48.0556 48.1232 48.0556 48.1232 48.5928 49.0055ZM45.6366 48.8856C46.6057 50.0085 47.5393 51.0749 47.7094 51.2746L48.0188 51.6338L47.5978 51.8355C46.6173 52.3113 45.1924 53.6309 44.2706 54.9183L44.0147 55.2528L42.9441 54.7728C42.3624 54.4967 41.2919 53.9652 40.5813 53.587C39.4129 52.968 39.2892 52.8812 39.4378 52.7627C40.935 51.4783 42.0258 50.0826 42.9407 48.2398C43.3648 47.4113 43.7231 46.7935 43.7747 46.8191C43.8263 46.8447 44.6726 47.778 45.6366 48.8856ZM51.4842 51.9168C53.0296 53.1972 54.2656 53.9904 56.3089 55.0183C58.0587 55.887 58.2442 56.0046 57.8585 55.9544C57.0253 55.8489 55.734 55.4516 54.592 54.9617C52.6776 54.1398 51.7981 53.9979 50.1543 54.2596C49.4604 54.3646 49.3528 54.3493 49.2032 54.1337C49.0383 53.8978 49.0377 53.872 49.7136 52.693C50.3376 51.6168 50.5936 51.2308 50.686 51.2767C50.7064 51.2868 51.0617 51.5791 51.4842 51.9168ZM60.4294 58.0903C60.5545 58.5885 60.5098 59.2723 60.3054 59.684C60.0754 60.1472 55.987 59.4391 52.0827 58.2576C50.0406 57.6417 45.312 55.8969 45.2496 55.7379C45.1976 55.558 46.499 54.151 47.2683 53.5582C48.022 52.9698 48.022 52.9698 47.931 53.3353C47.6972 54.2716 48.0798 55.0256 48.9597 55.3988C49.4585 55.6083 49.6748 55.6125 50.3373 55.4926C51.6527 55.2474 52.1155 55.3231 54.0808 56.0938C56.4737 57.038 58.0111 57.378 59.4807 57.2609C60.1187 57.2172 60.2166 57.3047 60.4294 58.0903ZM60.3259 61.452C60.332 61.6988 60.2548 61.7248 59.4063 61.7014C56.0956 61.5978 50.5765 59.922 43.6545 56.9094C40.8499 55.6838 33.4891 51.9522 30.5856 50.2795C25.2622 47.2259 19.7689 43.8441 14.9485 40.6557C10.8238 37.9279 10.8187 37.9126 11.0083 37.7114C11.1314 37.5675 11.2087 37.567 11.4507 37.7515C11.6158 37.8843 13.1191 38.888 14.7878 39.9984C23.3414 45.6694 31.9647 50.7077 39.7061 54.5512C44.1843 56.7745 47.8996 58.2855 51.8707 59.4874C54.6329 60.333 57.9194 61.002 59.5335 61.0592C60.2071 61.0721 60.3199 61.1281 60.3259 61.452ZM59.0044 63.0546C58.5477 63.2513 57.0986 63.481 56.0605 63.5049C53.9169 63.5573 51.3411 63.1124 48.2386 62.1496C46.6849 61.6602 46.6441 61.6399 33.5494 55.1647C16.5794 46.7776 12.7289 44.6863 9.5297 42.136C9.06095 41.7619 9.05581 41.7466 9.16727 41.2118C9.22813 40.9084 9.44741 40.2603 9.6513 39.7714L10.029 38.8811L10.554 39.2188C10.8476 39.4034 12.2845 40.36 13.7674 41.3534C29.9165 52.1171 44.7407 59.6827 54.539 62.1479C55.8354 62.4834 56.9616 62.6708 59.1825 62.9522C59.2048 62.9612 59.1225 62.9974 59.0044 63.0546Z" fill="#FFFFFE"/>
<path d="M32.42 26.1682C31.8602 26.2366 31.3665 26.2742 31.3252 26.2537C31.2685 26.2383 31.3299 26.0377 31.4372 25.8216C31.6928 25.3068 31.6362 25.2144 31.0967 25.2674C30.7933 25.2836 30.4745 25.2023 30.0215 24.9774C28.6834 24.313 27.5683 24.3623 26.5678 25.1363C26.1064 25.4975 25.9062 25.5648 25.361 25.5768L24.7081 25.5736L25.0181 26.0611L25.3229 26.5333L24.4752 26.6121C24.0028 26.6596 23.4475 26.7175 23.2166 26.7442L22.8104 26.7864L23.6547 27.2056C25.2298 27.9876 26.8601 28.4252 28.3049 28.4619C29.0812 28.4756 30.5705 28.0085 31.6327 27.4192C32.6028 26.8874 33.6545 26.1387 33.5255 26.0881C33.4731 26.0627 32.9798 26.0998 32.42 26.1682Z" fill="#FFFFFE"/>
</g>
<path d="M57.5674 38.5986C57.5674 38.1475 57.4062 37.7959 57.084 37.5439C56.7676 37.292 56.208 37.0312 55.4053 36.7617C54.6025 36.4922 53.9463 36.2314 53.4365 35.9795C51.7783 35.165 50.9492 34.0459 50.9492 32.6221C50.9492 31.9131 51.1543 31.2891 51.5645 30.75C51.9805 30.2051 52.5664 29.7832 53.3223 29.4844C54.0781 29.1797 54.9277 29.0273 55.8711 29.0273C56.791 29.0273 57.6143 29.1914 58.3408 29.5195C59.0732 29.8477 59.6416 30.3164 60.0459 30.9258C60.4502 31.5293 60.6523 32.2207 60.6523 33H57.5762C57.5762 32.4785 57.415 32.0742 57.0928 31.7871C56.7764 31.5 56.3457 31.3564 55.8008 31.3564C55.25 31.3564 54.8135 31.4795 54.4912 31.7256C54.1748 31.9658 54.0166 32.2734 54.0166 32.6484C54.0166 32.9766 54.1924 33.2754 54.5439 33.5449C54.8955 33.8086 55.5137 34.084 56.3984 34.3711C57.2832 34.6523 58.0098 34.957 58.5781 35.2852C59.9609 36.082 60.6523 37.1807 60.6523 38.5811C60.6523 39.7002 60.2305 40.5791 59.3867 41.2178C58.543 41.8564 57.3857 42.1758 55.915 42.1758C54.8779 42.1758 53.9375 41.9912 53.0938 41.6221C52.2559 41.2471 51.623 40.7373 51.1953 40.0928C50.7734 39.4424 50.5625 38.6953 50.5625 37.8516H53.6562C53.6562 38.5371 53.832 39.0439 54.1836 39.3721C54.541 39.6943 55.1182 39.8555 55.915 39.8555C56.4248 39.8555 56.8262 39.7471 57.1191 39.5303C57.418 39.3076 57.5674 38.9971 57.5674 38.5986ZM72.9219 42H69.8545L65.3193 34.0371V42H62.2344V29.2031H65.3193L69.8457 37.166V29.2031H72.9219V42ZM82.8096 36.5771H77.958V39.627H83.6885V42H74.873V29.2031H83.7061V31.585H77.958V34.2832H82.8096V36.5771ZM92.2139 39.6094H87.9863L87.248 42H83.9521L88.6455 29.2031H91.5459L96.2744 42H92.9609L92.2139 39.6094ZM88.7246 37.2275H91.4756L90.0957 32.7891L88.7246 37.2275ZM101.565 37.2363L100.3 38.625V42H97.2148V29.2031H100.3V34.8457L101.372 33.2197L104.132 29.2031H107.946L103.622 34.8633L107.946 42H104.29L101.565 37.2363ZM116.665 36.5771H111.813V39.627H117.544V42H108.729V29.2031H117.562V31.585H111.813V34.2832H116.665V36.5771ZM123.556 37.4824H121.886V42H118.801V29.2031H123.837C125.354 29.2031 126.541 29.54 127.396 30.2139C128.252 30.8877 128.68 31.8398 128.68 33.0703C128.68 33.9609 128.498 34.6992 128.135 35.2852C127.777 35.8711 127.215 36.3457 126.447 36.709L129.119 41.8682V42H125.814L123.556 37.4824ZM121.886 35.1006H123.837C124.423 35.1006 124.862 34.9482 125.155 34.6436C125.454 34.333 125.604 33.9023 125.604 33.3516C125.604 32.8008 125.454 32.3701 125.155 32.0596C124.856 31.7432 124.417 31.585 123.837 31.585H121.886V35.1006ZM137.144 38.5986C137.144 38.1475 136.982 37.7959 136.66 37.5439C136.344 37.292 135.784 37.0312 134.981 36.7617C134.179 36.4922 133.522 36.2314 133.013 35.9795C131.354 35.165 130.525 34.0459 130.525 32.6221C130.525 31.9131 130.73 31.2891 131.141 30.75C131.557 30.2051 132.143 29.7832 132.898 29.4844C133.654 29.1797 134.504 29.0273 135.447 29.0273C136.367 29.0273 137.19 29.1914 137.917 29.5195C138.649 29.8477 139.218 30.3164 139.622 30.9258C140.026 31.5293 140.229 32.2207 140.229 33H137.152C137.152 32.4785 136.991 32.0742 136.669 31.7871C136.353 31.5 135.922 31.3564 135.377 31.3564C134.826 31.3564 134.39 31.4795 134.067 31.7256C133.751 31.9658 133.593 32.2734 133.593 32.6484C133.593 32.9766 133.769 33.2754 134.12 33.5449C134.472 33.8086 135.09 34.084 135.975 34.3711C136.859 34.6523 137.586 34.957 138.154 35.2852C139.537 36.082 140.229 37.1807 140.229 38.5811C140.229 39.7002 139.807 40.5791 138.963 41.2178C138.119 41.8564 136.962 42.1758 135.491 42.1758C134.454 42.1758 133.514 41.9912 132.67 41.6221C131.832 41.2471 131.199 40.7373 130.771 40.0928C130.35 39.4424 130.139 38.6953 130.139 37.8516H133.232C133.232 38.5371 133.408 39.0439 133.76 39.3721C134.117 39.6943 134.694 39.8555 135.491 39.8555C136.001 39.8555 136.402 39.7471 136.695 39.5303C136.994 39.3076 137.144 38.9971 137.144 38.5986Z" fill="white"/>
<defs>
<clipPath id="clip0">
<rect x="26.6816" width="60" height="60" transform="rotate(26.4037 26.6816 0)" fill="white"/>
</clipPath>
</defs>
</svg>
